<?xml version="1.0" encoding="UTF-8" standalone="no"?>
<svg
   xmlns:dc="http://purl.org/dc/elements/1.1/"
   xmlns:cc="http://creativecommons.org/ns#"
   xmlns:rdf="http://www.w3.org/1999/02/22-rdf-syntax-ns#"
   xmlns:svg="http://www.w3.org/2000/svg"
   xmlns="http://www.w3.org/2000/svg"
   id="svg8"
   version="1.1"
   viewBox="0 0 264.58333 264.58334"
   height="1000"
   width="1000">
  <defs
     id="defs2" />
  <metadata
     id="metadata5">
    <rdf:RDF>
      <cc:Work
         rdf:about="">
        <dc:format>image/svg+xml</dc:format>
        <dc:type
           rdf:resource="http://purl.org/dc/dcmitype/StillImage" />
        <dc:title></dc:title>
      </cc:Work>
    </rdf:RDF>
  </metadata>
  <g
     transform="translate(0,-32.41665)"
     id="layer1">
    <path
       id="path3900"
       d="m 10.831754,285.57236 c 0.06913,-65.61494 -0.125959,-131.24343 0.108351,-196.8499 0.871986,-12.948677 11.040608,-25.079396 23.889456,-24.293941 70.050529,-0.270458 140.102059,-0.04 210.152929,5.08e-4 13.55961,1.157434 11.60779,18.413279 11.5022,28.748443 -0.0524,37.4464 0.22508,74.93 -0.23323,112.35432 -1.83518,15.46643 -19.30455,11.43996 -29.6704,11.98889 -53.56781,0.42477 -107.14481,0.51829 -160.707267,1.06765 -25.904964,3.98364 -42.638932,29.46524 -50.965997,53.72453 -1.537925,4.35523 -2.885667,8.7847 -4.076068,13.2595 z"
       style="fill:none;stroke:#000000;stroke-width:1.4697721px;stroke-linecap:butt;stroke-linejoin:miter;stroke-opacity:1" />
    <path
       id="path3912"
       d="M 11.606418,95.30815 H 256.5968"
       style="fill:none;stroke:#000000;stroke-width:1.4697721px;stroke-linecap:butt;stroke-linejoin:miter;stroke-opacity:1" />
    <path
       id="path3916"
       d="M 28.296387,64.663978 39.397505,95.33515 v 0"
       style="fill:none;stroke:#000000;stroke-width:1.4870671px;stroke-linecap:butt;stroke-linejoin:miter;stroke-opacity:1" />
    <path
       style="fill:none;stroke:#000000;stroke-width:1.4870671px;stroke-linecap:butt;stroke-linejoin:miter;stroke-opacity:1"
       d="M 51.16217,64.663978 62.26329,95.33515 v 0"
       id="path3948" />
    <path
       style="fill:none;stroke:#000000;stroke-width:1.4870671px;stroke-linecap:butt;stroke-linejoin:miter;stroke-opacity:1"
       d="M 88.319073,64.663978 99.420189,95.33515 v 0"
       id="path3950" />
    <path
       id="path3952"
       d="m 111.18486,64.663978 11.10111,30.671172 v 0"
       style="fill:none;stroke:#000000;stroke-width:1.4870671px;stroke-linecap:butt;stroke-linejoin:miter;stroke-opacity:1" />
    <path
       id="path3954"
       d="m 148.34175,64.663978 11.10111,30.671172 v 0"
       style="fill:none;stroke:#000000;stroke-width:1.4870671px;stroke-linecap:butt;stroke-linejoin:miter;stroke-opacity:1" />
    <path
       style="fill:none;stroke:#000000;stroke-width:1.4870671px;stroke-linecap:butt;stroke-linejoin:miter;stroke-opacity:1"
       d="m 171.20753,64.663978 11.10112,30.671172 v 0"
       id="path3956" />
    <path
       style="fill:none;stroke:#000000;stroke-width:1.4870671px;stroke-linecap:butt;stroke-linejoin:miter;stroke-opacity:1"
       d="m 208.36443,64.663978 11.10112,30.671172 v 0"
       id="path3958" />
    <path
       id="path3960"
       d="m 231.23021,64.663978 11.10112,30.671172 v 0"
       style="fill:none;stroke:#000000;stroke-width:1.4870671px;stroke-linecap:butt;stroke-linejoin:miter;stroke-opacity:1" />
  </g>
</svg>
